<?xml version="1.0" encoding="utf-8"?>
<svg version="1.1" viewBox="0 0 18 24" xmlns="http://www.w3.org/2000/svg">
  <path d="M 16.5 24 L 1.5 24 C 0.673 24 0 23.327 0 22.5 L 0 1.5 C 0 0.673 0.673 0 1.5 0 L 11.5 0 C 11.776 0 12 0.224 12 0.5 L 12 5.5 C 12 5.775 12.224 6 12.5 6 L 17.5 6 C 17.776 6 18 6.224 18 6.5 L 18 22.5 C 18 23.327 17.327 24 16.5 24 Z M 1.5 1 C 1.224 1 1 1.225 1 1.5 L 1 22.5 C 1 22.775 1.224 23 1.5 23 L 16.5 23 C 16.776 23 17 22.775 17 22.5 L 17 7 L 12.5 7 C 11.673 7 11 6.327 11 5.5 L 11 1 L 1.5 1 Z"/>
  <path d="M 17.5 7 C 17.372 7 17.244 6.951 17.146 6.854 L 11.146 0.854 C 10.951 0.659 10.951 0.342 11.146 0.147 C 11.341 -0.048 11.658 -0.048 11.853 0.147 L 17.853 6.147 C 18.048 6.342 18.048 6.659 17.853 6.854 C 17.756 6.951 17.628 7 17.5 7 Z"/>
</svg>